<?xml version="1.0" encoding="UTF-8"?>
<!DOCTYPE svg PUBLIC "-//W3C//DTD SVG 1.1//EN" "http://www.w3.org/Graphics/SVG/1.1/DTD/svg11.dtd">
<svg xmlns="http://www.w3.org/2000/svg" version="1.1" width="512px" height="512px" style="shape-rendering:geometricPrecision; text-rendering:geometricPrecision; image-rendering:optimizeQuality; fill-rule:evenodd; clip-rule:evenodd" xmlns:xlink="http://www.w3.org/1999/xlink">
<g><path style="opacity:0.972" fill="#020100" d="M 179.5,-0.5 C 186.167,-0.5 192.833,-0.5 199.5,-0.5C 225.604,3.27461 251.27,9.44128 276.5,18C 281.646,19.5856 283.98,23.0856 283.5,28.5C 281.704,29.7927 280.037,31.2927 278.5,33C 277.333,33.1667 276.167,33.3333 275,33.5C 264.439,30.5354 253.939,27.3687 243.5,24C 233.629,21.4105 223.629,19.5772 213.5,18.5C 203.793,15.8067 193.793,14.64 183.5,15C 176.427,17.0724 171.594,21.5724 169,28.5C 163.132,45.7711 157.465,63.1044 152,80.5C 149.997,99.332 158.497,108.332 177.5,107.5C 272.744,119.938 341.244,169.272 383,255.5C 395.036,284.313 402.036,314.313 404,345.5C 408.796,356.957 417.296,361.457 429.5,359C 448.56,352.819 467.56,346.486 486.5,340C 493.415,335.61 496.749,329.277 496.5,321C 485.188,224.352 441.855,145.685 366.5,85C 346.444,69.9518 325.11,56.9518 302.5,46C 298.886,43.0558 297.553,39.2225 298.5,34.5C 301.474,30.6827 305.14,29.8494 309.5,32C 405.399,79.2714 468.899,154.105 500,256.5C 504.819,274.77 508.653,293.103 511.5,311.5C 511.5,317.833 511.5,324.167 511.5,330.5C 508.753,339.761 503.42,347.261 495.5,353C 475.316,360.395 454.983,367.395 434.5,374C 420.274,377.485 407.774,374.319 397,364.5C 374.444,373.195 351.944,382.028 329.5,391C 327.951,392.214 326.785,393.714 326,395.5C 325.667,423.167 325.333,450.833 325,478.5C 319.48,494.177 308.647,499.677 292.5,495C 285.418,491.587 280.918,486.087 279,478.5C 278.667,458.833 278.333,439.167 278,419.5C 273.333,412.833 268.667,412.833 264,419.5C 263.915,431.557 263.249,443.557 262,455.5C 256.442,467.03 247.275,471.864 234.5,470C 226.913,468.082 221.413,463.582 218,456.5C 217.161,451.773 216.161,447.106 215,442.5C 212.347,439.806 209.18,438.973 205.5,440C 145.361,463.763 85.3607,487.596 25.5,511.5C 21.5,511.5 17.5,511.5 13.5,511.5C 6.5,509.167 1.83333,504.5 -0.5,497.5C -0.5,493.5 -0.5,489.5 -0.5,485.5C 15.5561,445.701 31.3895,405.701 47,365.5C 48.3948,359.262 52.2281,356.262 58.5,356.5C 59.7927,358.296 61.2927,359.963 63,361.5C 63.6667,363.5 63.6667,365.5 63,367.5C 46.553,408.727 30.3864,450.06 14.5,491.5C 15.1667,494.167 16.8333,495.833 19.5,496.5C 25.6806,494.552 31.6806,492.219 37.5,489.5C 50.129,484.847 62.4624,479.68 74.5,474C 64.5352,464.296 58.8685,452.463 57.5,438.5C 57.3171,422.879 62.6504,409.545 73.5,398.5C 90.3959,383.504 109.396,380.338 130.5,389C 151.42,399.658 161.42,416.825 160.5,440.5C 174.915,435.305 189.248,429.805 203.5,424C 222.289,423.453 232.122,432.619 233,451.5C 238.163,457.062 242.829,456.729 247,450.5C 247.333,439.5 247.667,428.5 248,417.5C 255.486,399.336 267.986,394.836 285.5,404C 288.273,406.383 290.439,409.217 292,412.5C 293.3,433.436 293.966,454.436 294,475.5C 299.333,483.5 304.667,483.5 310,475.5C 310.333,447.167 310.667,418.833 311,390.5C 313.777,384.057 318.277,379.223 324.5,376C 342.638,369.095 360.638,361.928 378.5,354.5C 381.919,353.626 385.252,352.46 388.5,351C 385.643,274.616 353.977,213.283 293.5,167C 253.679,138.837 209.346,123.837 160.5,122C 156.447,130.822 152.78,139.822 149.5,149C 149.905,149.945 150.572,150.612 151.5,151C 158.449,151.929 165.116,153.763 171.5,156.5C 196.209,169.736 207.042,190.403 204,218.5C 196.593,249.574 176.927,265.574 145,266.5C 138.263,266.872 131.763,265.872 125.5,263.5C 120.16,261.018 115.16,257.851 110.5,254C 109.552,253.517 108.552,253.351 107.5,253.5C 96.9638,281.579 86.1305,309.579 75,337.5C 72.4093,341.048 68.9093,342.382 64.5,341.5C 60.8295,338.751 59.6628,335.084 61,330.5C 89.5,258.333 118,186.167 146.5,114C 137.795,104.546 134.295,93.3798 136,80.5C 142.333,60.8333 148.667,41.1667 155,21.5C 159.926,10.4004 168.092,3.06708 179.5,-0.5 Z"/></g>
<g><path style="opacity:1" fill="#c07541" d="M 213.5,18.5 C 204.005,21.1585 197.505,27.1585 194,36.5C 190.985,44.7084 188.485,53.0417 186.5,61.5C 179.343,61.155 176.176,64.4884 177,71.5C 178.025,73.687 179.525,75.3536 181.5,76.5C 176.887,84.8637 175.054,93.8637 176,103.5C 176.41,104.901 176.91,106.234 177.5,107.5C 158.497,108.332 149.997,99.332 152,80.5C 157.465,63.1044 163.132,45.7711 169,28.5C 171.594,21.5724 176.427,17.0724 183.5,15C 193.793,14.64 203.793,15.8067 213.5,18.5 Z"/></g>
<g><path style="opacity:1" fill="#d88953" d="M 213.5,18.5 C 223.629,19.5772 233.629,21.4105 243.5,24C 253.939,27.3687 264.439,30.5354 275,33.5C 276.167,33.3333 277.333,33.1667 278.5,33C 280.037,31.2927 281.704,29.7927 283.5,28.5C 288.383,30.7741 293.383,32.7741 298.5,34.5C 297.553,39.2225 298.886,43.0558 302.5,46C 325.11,56.9518 346.444,69.9518 366.5,85C 441.855,145.685 485.188,224.352 496.5,321C 496.749,329.277 493.415,335.61 486.5,340C 467.56,346.486 448.56,352.819 429.5,359C 417.296,361.457 408.796,356.957 404,345.5C 402.036,314.313 395.036,284.313 383,255.5C 341.244,169.272 272.744,119.938 177.5,107.5C 176.91,106.234 176.41,104.901 176,103.5C 175.054,93.8637 176.887,84.8637 181.5,76.5C 189.201,76.6378 192.367,72.9711 191,65.5C 189.603,63.9297 188.103,62.5964 186.5,61.5C 188.485,53.0417 190.985,44.7084 194,36.5C 197.505,27.1585 204.005,21.1585 213.5,18.5 Z"/></g>
<g><path style="opacity:1" fill="#0b0603" d="M 207.5,37.5 C 214.657,37.155 217.824,40.4884 217,47.5C 214.928,52.1433 211.428,53.6433 206.5,52C 201.003,46.6829 201.336,41.8495 207.5,37.5 Z"/></g>
<g><path style="opacity:1" fill="#0b0603" d="M 186.5,61.5 C 188.103,62.5964 189.603,63.9297 191,65.5C 192.367,72.9711 189.201,76.6378 181.5,76.5C 179.525,75.3536 178.025,73.687 177,71.5C 176.176,64.4884 179.343,61.155 186.5,61.5 Z"/></g>
<g><path style="opacity:1" fill="#0b0603" d="M 226.5,67.5 C 232.629,66.5548 236.296,69.0548 237.5,75C 235.127,82.8747 230.627,84.3747 224,79.5C 221.511,74.7565 222.345,70.7565 226.5,67.5 Z"/></g>
<g><path style="opacity:1" fill="#f6ae43" d="M 378.5,354.5 C 376.086,325.014 369.92,296.347 360,268.5C 346.58,236.079 325.413,209.912 296.5,190C 264.188,166.724 228.188,152.557 188.5,147.5C 183.397,147.547 178.73,149.047 174.5,152C 172.859,153.129 171.859,154.629 171.5,156.5C 165.116,153.763 158.449,151.929 151.5,151C 150.572,150.612 149.905,149.945 149.5,149C 152.78,139.822 156.447,130.822 160.5,122C 209.346,123.837 253.679,138.837 293.5,167C 353.977,213.283 385.643,274.616 388.5,351C 385.252,352.46 381.919,353.626 378.5,354.5 Z"/></g>
<g><path style="opacity:1" fill="#fad057" d="M 378.5,354.5 C 360.638,361.928 342.638,369.095 324.5,376C 318.277,379.223 313.777,384.057 311,390.5C 310.667,418.833 310.333,447.167 310,475.5C 304.667,483.5 299.333,483.5 294,475.5C 293.966,454.436 293.3,433.436 292,412.5C 290.439,409.217 288.273,406.383 285.5,404C 267.986,394.836 255.486,399.336 248,417.5C 247.667,428.5 247.333,439.5 247,450.5C 242.829,456.729 238.163,457.062 233,451.5C 232.122,432.619 222.289,423.453 203.5,424C 189.248,429.805 174.915,435.305 160.5,440.5C 161.42,416.825 151.42,399.658 130.5,389C 109.396,380.338 90.3959,383.504 73.5,398.5C 83.3703,371.107 94.037,344.107 105.5,317.5C 103.903,334.332 111.403,343.999 128,346.5C 144.147,344.028 151.814,334.694 151,318.5C 146.174,304.357 136.34,298.524 121.5,301C 118.339,302.413 115.339,304.08 112.5,306C 110.248,308.736 108.248,311.569 106.5,314.5C 113.03,297.577 119.363,280.577 125.5,263.5C 131.763,265.872 138.263,266.872 145,266.5C 176.927,265.574 196.593,249.574 204,218.5C 207.042,190.403 196.209,169.736 171.5,156.5C 171.859,154.629 172.859,153.129 174.5,152C 178.73,149.047 183.397,147.547 188.5,147.5C 228.188,152.557 264.188,166.724 296.5,190C 325.413,209.912 346.58,236.079 360,268.5C 369.92,296.347 376.086,325.014 378.5,354.5 Z"/></g>
<g><path style="opacity:1" fill="#cc3535" d="M 165.5,170.5 C 163.876,170.36 162.71,171.027 162,172.5C 151.666,198.007 141.832,223.673 132.5,249.5C 125.178,247.504 119.178,243.504 114.5,237.5C 123.765,214.206 132.931,190.873 142,167.5C 143.525,166.28 145.359,165.613 147.5,165.5C 154.034,165.665 160.034,167.332 165.5,170.5 Z"/></g>
<g><path style="opacity:1" fill="#e74341" d="M 165.5,170.5 C 187.629,183.374 194.463,202.041 186,226.5C 175.083,246.541 158.249,254.707 135.5,251C 134.263,250.768 133.263,250.268 132.5,249.5C 141.832,223.673 151.666,198.007 162,172.5C 162.71,171.027 163.876,170.36 165.5,170.5 Z"/></g>
<g><path style="opacity:1" fill="#060401" d="M 238.5,176.5 C 242.192,175.971 245.358,176.971 248,179.5C 254.107,189.365 256.107,200.032 254,211.5C 253.021,218.405 249.187,220.905 242.5,219C 240.741,217.992 239.574,216.492 239,214.5C 239.356,208.188 239.356,201.855 239,195.5C 237.209,191.589 235.709,187.589 234.5,183.5C 234.974,180.689 236.307,178.355 238.5,176.5 Z"/></g>
<g><path style="opacity:1" fill="#090703" d="M 300.5,217.5 C 310.525,216.731 313.525,220.898 309.5,230C 302.864,233.33 298.531,231.497 296.5,224.5C 297.071,221.687 298.404,219.354 300.5,217.5 Z"/></g>
<g><path style="opacity:1" fill="#0c0904" d="M 233.5,242.5 C 242.779,242.089 245.779,246.089 242.5,254.5C 237.912,258.812 233.745,258.479 230,253.5C 228.662,248.96 229.829,245.293 233.5,242.5 Z"/></g>
<g><path style="opacity:1" fill="#f6ae43" d="M 125.5,263.5 C 119.363,280.577 113.03,297.577 106.5,314.5C 106.443,315.609 106.11,316.609 105.5,317.5C 94.037,344.107 83.3703,371.107 73.5,398.5C 62.6504,409.545 57.3171,422.879 57.5,438.5C 50.067,455.12 43.4003,472.12 37.5,489.5C 31.6806,492.219 25.6806,494.552 19.5,496.5C 16.8333,495.833 15.1667,494.167 14.5,491.5C 30.3864,450.06 46.553,408.727 63,367.5C 63.6667,365.5 63.6667,363.5 63,361.5C 61.2927,359.963 59.7927,358.296 58.5,356.5C 60.871,351.735 62.871,346.735 64.5,341.5C 68.9093,342.382 72.4093,341.048 75,337.5C 86.1305,309.579 96.9638,281.579 107.5,253.5C 108.552,253.351 109.552,253.517 110.5,254C 115.16,257.851 120.16,261.018 125.5,263.5 Z"/></g>
<g><path style="opacity:1" fill="#050301" d="M 310.5,339.5 C 309.016,336.416 309.182,333.416 311,330.5C 329.069,316.953 332.069,300.62 320,281.5C 315.621,276.282 310.121,272.948 303.5,271.5C 282.134,267.671 268.634,276.338 263,297.5C 262.003,316.348 270.503,328.514 288.5,334C 291.844,335.894 293.178,338.727 292.5,342.5C 291.044,346.317 288.211,347.984 284,347.5C 264.83,342.329 253.164,329.995 249,310.5C 246.139,282.714 257.973,264.547 284.5,256C 314.973,252.97 334.139,266.136 342,295.5C 343.709,315.58 336.209,331.08 319.5,342C 316.007,342.869 313.007,342.036 310.5,339.5 Z"/></g>
<g><path style="opacity:1" fill="#cc3635" d="M 303.5,271.5 C 299.147,272.319 295.647,274.652 293,278.5C 282.478,295.617 283.144,312.284 295,328.5C 299.399,332.409 303.899,336.076 308.5,339.5C 303.371,341.447 298.038,342.447 292.5,342.5C 293.178,338.727 291.844,335.894 288.5,334C 270.503,328.514 262.003,316.348 263,297.5C 268.634,276.338 282.134,267.671 303.5,271.5 Z"/></g>
<g><path style="opacity:1" fill="#e74341" d="M 303.5,271.5 C 310.121,272.948 315.621,276.282 320,281.5C 332.069,300.62 329.069,316.953 311,330.5C 309.182,333.416 309.016,336.416 310.5,339.5C 309.833,339.5 309.167,339.5 308.5,339.5C 303.899,336.076 299.399,332.409 295,328.5C 283.144,312.284 282.478,295.617 293,278.5C 295.647,274.652 299.147,272.319 303.5,271.5 Z"/></g>
<g><path style="opacity:1" fill="#080602" d="M 203.5,272.5 C 207.308,272.163 210.974,272.663 214.5,274C 218.826,279.044 218.16,283.378 212.5,287C 207.481,287.118 202.815,288.451 198.5,291C 194.833,294 191.167,297 187.5,300C 181.243,301.743 177.576,299.41 176.5,293C 177.201,290.62 178.367,288.453 180,286.5C 186.898,280.139 194.732,275.473 203.5,272.5 Z"/></g>
<g><path style="opacity:1" fill="#060301" d="M 456.5,280.5 C 459.602,280.154 462.435,280.821 465,282.5C 472.81,294.372 474.477,307.039 470,320.5C 465.667,325.833 461.333,325.833 457,320.5C 457.275,314.182 457.275,307.849 457,301.5C 455.347,297.033 453.847,292.533 452.5,288C 452.43,284.634 453.763,282.134 456.5,280.5 Z"/></g>
<g><path style="opacity:1" fill="#050401" d="M 105.5,317.5 C 106.11,316.609 106.443,315.609 106.5,314.5C 108.248,311.569 110.248,308.736 112.5,306C 115.339,304.08 118.339,302.413 121.5,301C 136.34,298.524 146.174,304.357 151,318.5C 151.814,334.694 144.147,344.028 128,346.5C 111.403,343.999 103.903,334.332 105.5,317.5 Z"/></g>
<g><path style="opacity:1" fill="#99d049" d="M 124.5,315.5 C 134.059,314.546 137.559,318.546 135,327.5C 129.837,333.062 125.171,332.729 121,326.5C 119.662,321.96 120.829,318.293 124.5,315.5 Z"/></g>
<g><path style="opacity:1" fill="#0a0703" d="M 218.5,315.5 C 228.11,315.936 230.776,320.436 226.5,329C 217.319,332.325 213.485,329.158 215,319.5C 216.376,318.295 217.542,316.962 218.5,315.5 Z"/></g>
<g><path style="opacity:1" fill="#0e0b05" d="M 351.5,325.5 C 359.161,324.663 362.661,327.996 362,335.5C 357.383,342.152 352.717,342.152 348,335.5C 347.182,331.469 348.349,328.136 351.5,325.5 Z"/></g>
<g><path style="opacity:1" fill="#040301" d="M 214.5,355.5 C 228.981,353.318 238.814,358.985 244,372.5C 246.048,386.243 240.548,395.41 227.5,400C 207.21,402.044 197.71,392.877 199,372.5C 201.596,364.408 206.762,358.741 214.5,355.5 Z"/></g>
<g><path style="opacity:1" fill="#090703" d="M 149.5,360.5 C 159.525,359.731 162.525,363.898 158.5,373C 149.961,376.451 145.794,373.618 146,364.5C 147.376,363.295 148.542,361.962 149.5,360.5 Z"/></g>
<g><path style="opacity:1" fill="#9ad149" d="M 217.5,370.5 C 225.661,369.171 229.495,372.505 229,380.5C 224.515,388.035 219.515,388.368 214,381.5C 212.662,376.96 213.829,373.293 217.5,370.5 Z"/></g>
<g><path style="opacity:1" fill="#cc3535" d="M 115.5,400.5 C 113.217,400.608 111.217,401.441 109.5,403C 94.2307,419.169 91.3973,437.336 101,457.5C 102.049,459.618 103.549,461.284 105.5,462.5C 101.361,464.392 97.0276,466.059 92.5,467.5C 78.1222,459.414 71.6222,447.081 73,430.5C 78.7603,408.229 92.9269,398.229 115.5,400.5 Z"/></g>
<g><path style="opacity:1" fill="#e74341" d="M 115.5,400.5 C 131.205,403.523 141.039,412.856 145,428.5C 146.146,435.31 145.312,441.81 142.5,448C 130.261,453.134 117.928,457.967 105.5,462.5C 103.549,461.284 102.049,459.618 101,457.5C 91.3973,437.336 94.2307,419.169 109.5,403C 111.217,401.441 113.217,400.608 115.5,400.5 Z"/></g>
<g><path style="opacity:1" fill="#f8ce56" d="M 57.5,438.5 C 58.8685,452.463 64.5352,464.296 74.5,474C 62.4624,479.68 50.129,484.847 37.5,489.5C 43.4003,472.12 50.067,455.12 57.5,438.5 Z"/></g>
</svg>
