<svg xmlns="http://www.w3.org/2000/svg" version="1.1" width="512px" height="512px" style="shape-rendering:geometricPrecision; text-rendering:geometricPrecision; image-rendering:optimizeQuality; fill-rule:evenodd; clip-rule:evenodd" xmlns:xlink="http://www.w3.org/1999/xlink">
<g><path style="opacity:0.957" fill="#fea600" d="M 511.5,97.5 C 511.5,104.5 511.5,111.5 511.5,118.5C 509.051,127.068 505.218,135.068 500,142.5C 399.167,243.333 298.333,344.167 197.5,445C 182.375,457.029 165.375,460.696 146.5,456C 131.986,451.335 120.819,442.501 113,429.5C 78.7655,368.929 44.0988,308.595 9,248.5C 4.95038,241.416 1.78372,234.083 -0.5,226.5C -0.5,219.833 -0.5,213.167 -0.5,206.5C 8.34626,179.295 27.1796,164.628 56,162.5C 76.3785,163.019 91.7118,172.019 102,189.5C 125.495,231.161 149.495,272.494 174,313.5C 257.167,230.333 340.333,147.167 423.5,64C 440.611,52.7762 458.944,50.4429 478.5,57C 496.031,65.2549 507.031,78.7549 511.5,97.5 Z"/></g>
<g><path style="opacity:1" fill="#f09b04" d="M 449.5,63.5 C 474.941,61.6212 491.775,72.6212 500,96.5C 503.251,111.247 500.251,124.581 491,136.5C 390.833,236.667 290.667,336.833 190.5,437C 171.174,450.95 151.84,450.95 132.5,437C 128.618,432.786 125.118,428.286 122,423.5C 86.0325,360.853 50.0325,298.187 14,235.5C 4.32572,204.354 15.1591,183.854 46.5,174C 67.7293,170.367 83.5626,177.867 94,196.5C 119.581,241.33 145.414,285.997 171.5,330.5C 258.707,243.459 346.041,156.626 433.5,70C 438.607,66.9354 443.94,64.7688 449.5,63.5 Z"/></g>
</svg>
